<?xml version="1.0" standalone="no"?>
<!DOCTYPE svg PUBLIC "-//W3C//DTD SVG 20010904//EN"
 "http://www.w3.org/TR/2001/REC-SVG-20010904/DTD/svg10.dtd">
<svg version="1.0" xmlns="http://www.w3.org/2000/svg"
 width="600.000000pt" height="600.000000pt" viewBox="0 0 600.000000 600.000000"
 preserveAspectRatio="xMidYMid meet">
<metadata>
Created by potrace 1.11, written by Peter Selinger 2001-2013
</metadata>
<g transform="translate(0.000000,600.000000) scale(0.100000,-0.100000)"
fill="#000000" stroke="none">
<path d="M2937 4704 c-1 -1 -24 -4 -52 -8 -57 -6 -105 -15 -116 -21 -4 -3 -24
-7 -44 -11 -51 -8 -74 -12 -93 -18 -9 -3 -28 -7 -42 -10 -31 -5 -148 -46 -213
-75 -27 -12 -55 -21 -63 -21 -8 0 -14 -5 -14 -11 0 -5 -4 -8 -9 -4 -5 3 -12 1
-16 -5 -3 -5 -14 -10 -24 -10 -10 0 -24 -6 -30 -14 -7 -8 -23 -17 -36 -20 -26
-7 -171 -95 -212 -129 -39 -33 -93 -90 -93 -99 0 -4 -9 -16 -21 -27 -38 -35
-149 -249 -164 -316 -1 -5 -5 -19 -9 -30 -22 -57 -27 -76 -40 -140 -18 -86
-24 -120 -32 -164 -3 -18 -8 -43 -10 -55 -15 -74 -18 -102 -17 -198 0 -59 -2
-106 -6 -106 -6 2 -81 -9 -124 -18 -52 -10 -85 -16 -121 -19 -64 -7 -119 -16
-161 -26 -61 -15 -74 -17 -149 -23 -38 -4 -71 -8 -75 -10 -3 -2 -22 -7 -41
-10 -19 -3 -51 -10 -70 -16 -19 -6 -51 -13 -70 -16 -19 -3 -60 -9 -90 -15 -51
-8 -65 -11 -119 -23 -10 -2 -34 -7 -54 -10 -59 -9 -247 -66 -293 -89 -33 -16
-44 -27 -44 -44 0 -29 33 -63 61 -63 11 0 66 -12 122 -27 85 -22 122 -27 227
-26 69 0 148 2 175 4 41 3 62 -3 117 -30 69 -34 109 -39 208 -29 25 3 50 3 55
-1 6 -3 19 -7 30 -9 36 -6 40 -8 51 -14 15 -10 162 -46 214 -53 25 -4 54 -7
64 -9 11 -1 21 -7 23 -13 4 -11 -94 -163 -106 -163 -3 0 -15 -14 -25 -31 l-18
-31 33 7 c18 4 48 16 66 26 18 10 33 16 33 13 0 -3 20 9 45 27 61 44 73 31 47
-46 -33 -97 -19 -183 54 -328 15 -28 30 -54 34 -57 4 -3 9 -11 11 -18 5 -16
141 -170 151 -171 4 -1 31 -15 60 -32 29 -17 54 -31 56 -29 1 1 16 -1 32 -5
21 -5 30 -13 30 -26 0 -23 -18 -61 -34 -71 -23 -15 4 -18 38 -4 l36 15 -5 -59
c-2 -33 -1 -60 3 -60 4 1 20 11 36 24 l29 24 61 -60 c87 -86 97 -93 216 -163
36 -21 67 -42 68 -47 2 -4 7 -8 12 -8 4 0 34 -12 66 -27 33 -15 65 -28 72 -30
6 -2 18 -4 25 -6 6 -1 17 -6 24 -10 16 -10 197 -68 253 -82 3 0 15 -4 27 -9
15 -5 42 1 85 19 60 26 169 61 214 69 66 12 193 70 267 120 21 14 42 26 47 26
22 0 188 184 183 201 -1 4 18 1 42 -6 l44 -14 -1 45 c-1 51 2 55 52 74 19 8
45 21 57 30 74 57 240 208 242 222 1 4 16 31 34 59 18 29 32 55 32 58 1 3 6
16 13 29 7 12 11 22 8 22 -2 0 1 21 8 48 7 26 12 55 10 64 -2 14 1 15 19 5 11
-7 32 -25 45 -40 14 -15 26 -26 28 -25 2 2 -8 35 -22 73 -14 39 -28 98 -30
132 l-4 63 26 -23 c14 -12 26 -20 27 -18 1 2 13 -2 27 -9 14 -8 38 -16 55 -18
16 -2 36 -8 43 -14 25 -22 21 0 -8 40 -16 23 -30 46 -30 50 0 5 -6 22 -14 38
-8 16 -18 41 -21 55 l-6 26 123 -1 c148 0 275 9 291 22 7 5 26 13 42 16 17 3
41 9 55 12 30 7 72 8 120 2 19 -3 51 -1 70 4 19 5 43 10 53 13 10 2 33 13 51
25 37 22 80 26 176 13 97 -13 219 -5 305 19 61 17 67 19 115 25 50 7 79 29 85
65 4 18 -1 27 -18 35 -37 18 -131 52 -152 55 -11 2 -23 7 -26 11 -3 5 -21 11
-39 13 -18 3 -45 10 -59 16 -14 5 -44 12 -66 14 -22 3 -53 9 -70 14 -16 5 -48
12 -70 15 -73 10 -139 23 -195 39 -30 8 -70 17 -87 20 -18 3 -45 8 -60 11 -16
3 -48 7 -73 9 -25 3 -65 10 -90 16 -25 6 -58 13 -75 15 -16 2 -50 7 -75 11
-25 4 -55 8 -67 9 -12 2 -36 7 -55 11 -35 8 -60 12 -93 17 -34 5 -41 14 -44
63 -1 26 -4 51 -7 56 -11 18 -15 96 -5 102 6 4 7 16 2 29 -4 12 -7 39 -7 59 1
21 -3 38 -7 38 -5 0 -6 4 -3 9 3 4 1 23 -4 42 -6 19 -13 46 -15 61 -18 96
-100 297 -179 436 -45 79 -140 202 -209 270 -92 90 -94 92 -104 92 -5 0 -15 9
-23 20 -8 11 -18 20 -22 20 -10 0 -91 52 -99 63 -3 5 -10 9 -15 9 -5 0 -45 18
-89 38 -44 21 -108 48 -143 59 -56 19 -85 29 -157 57 -22 8 -38 12 -75 18 -14
3 -34 7 -45 9 -58 14 -338 30 -348 21z"/>
</g>
</svg>
